<svg width="24" height="24" viewBox="0 0 24 24" fill="none" xmlns="http://www.w3.org/2000/svg">
<path d="M21 13C21.5523 13 22 12.5523 22 12C22 11.4477 21.5523 11 21 11V13ZM3 12L2.29289 11.2929C1.90237 11.6834 1.90237 12.3166 2.29289 12.7071L3 12ZM7.29289 17.7071C7.68342 18.0976 8.31658 18.0976 8.70711 17.7071C9.09763 17.3166 9.09763 16.6834 8.70711 16.2929L7.29289 17.7071ZM8.70711 7.70711C9.09763 7.31658 9.09763 6.68342 8.70711 6.29289C8.31658 5.90237 7.68342 5.90237 7.29289 6.29289L8.70711 7.70711ZM21 11H3V13H21V11ZM2.29289 12.7071L7.29289 17.7071L8.70711 16.2929L3.70711 11.2929L2.29289 12.7071ZM3.70711 12.7071L8.70711 7.70711L7.29289 6.29289L2.29289 11.2929L3.70711 12.7071Z" fill="white"/>
</svg>
