<svg width="81" height="66" viewBox="0 0 81 66" fill="none" xmlns="http://www.w3.org/2000/svg">
<path d="M80.2281 22.7726C80.2164 28.3735 78.149 33.7752 74.4181 37.9526C72.2781 40.3526 69.5181 42.0726 66.9281 43.9526C57.8414 50.5793 48.7348 57.1826 39.6081 63.7626L38.9081 64.2626C38.0563 64.882 37.0071 65.168 35.9588 65.0667C34.9105 64.9654 33.9355 64.4837 33.2181 63.7126C27.0081 57.2326 20.7781 50.7626 14.5981 44.2626C12.3981 41.9426 10.1681 39.6426 7.96811 37.3326C5.76811 35.0226 3.4181 32.9126 1.9081 30.2026C0.617876 27.8563 -0.0391049 25.2144 0.00179976 22.5371C0.0427044 19.8597 0.780092 17.2391 2.14139 14.9333C3.50268 12.6275 5.44096 10.7159 7.76543 9.38665C10.0899 8.05743 12.7204 7.35642 15.3981 7.35262C18.2669 7.36503 21.078 8.16029 23.5281 9.65264C25.9057 11.1783 27.824 13.3213 29.0781 15.8526C29.7544 17.1917 30.3132 18.5869 30.7481 20.0226C31.0081 20.8126 31.2181 21.6026 31.4681 22.3926C31.6384 23.1178 31.904 23.8173 32.2581 24.4726C32.3705 24.663 32.5428 24.8106 32.7481 24.8926C32.9228 24.9374 33.1071 24.9269 33.2755 24.8624C33.4439 24.7979 33.5881 24.6827 33.6881 24.5326C33.8821 24.2324 33.9989 23.8889 34.0281 23.5326C34.1781 22.2626 34.5081 21.0026 34.7781 19.7526C34.8781 19.2626 34.9881 18.7526 35.0781 18.2926C36.1956 12.7517 39.3314 7.82346 43.8772 4.46398C48.4229 1.10449 54.0546 -0.446655 59.6794 0.111468C65.3042 0.669591 70.5212 3.2972 74.3182 7.48448C78.1151 11.6718 80.2213 17.1202 80.2281 22.7726Z" fill="url(#paint0_linear_1_15)"/>
<defs>
<linearGradient id="paint0_linear_1_15" x1="-0.0318932" y1="32.5426" x2="80.1981" y2="32.5426" gradientUnits="userSpaceOnUse">
<stop stop-color="#EE2140"/>
<stop offset="1" stop-color="#ED1A6B"/>
</linearGradient>
</defs>
</svg>
