<svg width="100" height="100" viewBox="0 0 100 100" fill="none" xmlns="http://www.w3.org/2000/svg">
<path fill-rule="evenodd" clip-rule="evenodd" d="M5.85938 0L13.8838 90.0036L49.8929 100L86.0013 89.9895L94.0343 0H5.85938ZM79.1242 84.2593L49.9468 92.3484V80.8933L49.896 80.9074L27.2843 74.6303L25.7378 57.2981H36.8188L37.6047 66.1019L49.8985 69.4215L49.9087 69.4187V80.9021L72.5384 74.6303L75.2983 43.7044L75.5677 40.7402H49.9468V29.4365H76.5721L77.5605 18.3978H49.9468V7.35913H85.9889L79.1242 84.2593ZM49.9087 18.3978H22.2673L25.2446 51.7786H49.9087V40.7402H35.3399L34.3311 29.4365H49.9087V18.3978ZM62.2202 66.0949L49.9468 69.4075V51.7786H63.5015L62.2202 66.0949Z" fill="#E44D26"/>
</svg>
