<svg width="85" height="68" viewBox="0 0 85 68" fill="none" xmlns="http://www.w3.org/2000/svg">
<g clip-path="url(#clip0_114_49)">
<rect width="85" height="68" fill="white"/>
<path fill-rule="evenodd" clip-rule="evenodd" d="M85.3553 0H0V67.8822H85.3553V0ZM28.024 39.9942C28.5147 39.9515 29.016 39.8555 29.528 39.7062V37.4022C28.6107 37.6155 27.6827 37.7222 26.744 37.7222C25.6773 37.7222 24.664 37.6048 23.704 37.3702C22.744 37.1568 21.8053 36.9115 20.888 36.6342C19.9707 36.3782 19.064 36.1328 18.168 35.8982C17.2933 35.6848 16.408 35.5782 15.512 35.5782C15.2133 35.5782 14.9253 35.5995 14.648 35.6422C14.3707 35.6848 14.0827 35.7382 13.784 35.8022V38.1382C14.2533 38.0102 14.744 37.9462 15.256 37.9462C16.0453 37.9462 16.8773 38.0528 17.752 38.2662C18.6267 38.5008 19.5333 38.7462 20.472 39.0022C21.432 39.2795 22.4133 39.5248 23.416 39.7382C24.44 39.9728 25.4853 40.0902 26.552 40.0902C27.0427 40.0902 27.5333 40.0582 28.024 39.9942ZM11.16 14.4582C9.58133 16.4422 8.792 19.3008 8.792 23.0342C8.792 24.7835 8.97333 26.3728 9.336 27.8022C9.69867 29.2102 10.2533 30.4262 11 31.4502C11.768 32.4528 12.7173 33.2315 13.848 33.7862C15 34.3408 16.3547 34.6182 17.912 34.6182C20.856 34.6182 23.1173 33.6262 24.696 31.6422C26.296 29.6368 27.096 26.7675 27.096 23.0342C27.096 21.2848 26.9147 19.7062 26.552 18.2982C26.1893 16.8688 25.624 15.6528 24.856 14.6502C24.1093 13.6262 23.16 12.8368 22.008 12.2822C20.856 11.7275 19.4907 11.4502 17.912 11.4502C14.9893 11.4502 12.7387 12.4528 11.16 14.4582ZM11.96 26.5542C11.7253 25.4448 11.608 24.2715 11.608 23.0342C11.608 19.8982 12.1627 17.5835 13.272 16.0902C14.4027 14.5755 15.9493 13.8182 17.912 13.8182C19.0213 13.8182 19.9707 14.0742 20.76 14.5862C21.5707 15.0768 22.232 15.7488 22.744 16.6022C23.2773 17.4342 23.6613 18.4155 23.896 19.5462C24.152 20.6555 24.28 21.8182 24.28 23.0342C24.28 26.1702 23.7147 28.4955 22.584 30.0102C21.4533 31.5035 19.896 32.2502 17.912 32.2502C16.824 32.2502 15.8747 32.0048 15.064 31.5142C14.2747 31.0022 13.624 30.3302 13.112 29.4982C12.6 28.6448 12.216 27.6635 11.96 26.5542ZM33.643 27.3542V18.2342H31.083V27.8982C31.083 29.2208 31.1897 30.3195 31.403 31.1942C31.6377 32.0475 31.9683 32.7302 32.395 33.2422C32.843 33.7542 33.387 34.1062 34.027 34.2982C34.6883 34.5115 35.4457 34.6182 36.299 34.6182C37.579 34.6182 38.635 34.3408 39.467 33.7862C40.299 33.2315 40.9603 32.5382 41.451 31.7062H41.611L42.251 34.2342H44.011C43.883 33.6155 43.787 32.9008 43.723 32.0902C43.6803 31.2582 43.659 30.4582 43.659 29.6902V18.2342H41.099V28.9222C40.9283 29.3915 40.7043 29.8395 40.427 30.2662C40.171 30.6715 39.8617 31.0342 39.499 31.3542C39.1577 31.6742 38.763 31.9302 38.315 32.1222C37.867 32.2928 37.355 32.3782 36.779 32.3782C36.1603 32.3782 35.6483 32.2715 35.243 32.0582C34.8377 31.8448 34.5177 31.5355 34.283 31.1302C34.0483 30.7035 33.8777 30.1808 33.771 29.5622C33.6857 28.9222 33.643 28.1862 33.643 27.3542ZM51.693 18.2342H49.133V34.2342H51.693V18.2342ZM49.069 12.1222C48.749 12.4635 48.589 12.8795 48.589 13.3702C48.589 13.8608 48.749 14.2662 49.069 14.5862C49.4103 14.9062 49.837 15.0662 50.349 15.0662C50.861 15.0662 51.2983 14.9062 51.661 14.5862C52.0237 14.2662 52.205 13.8608 52.205 13.3702C52.205 12.8795 52.0237 12.4635 51.661 12.1222C51.2983 11.7595 50.861 11.5782 50.349 11.5782C49.837 11.5782 49.4103 11.7595 49.069 12.1222ZM63.4235 21.8182L56.0315 31.9942V34.2342H67.4235V31.9942H58.6555L59.9675 30.7462L67.4235 20.4742V18.2342H56.0315V20.4742H64.7675L63.4235 21.8182Z" fill="#ED1C6C"/>
<path d="M85.4 28V68H0L85.4 28Z" fill="white"/>
</g>
<defs>
<clipPath id="clip0_114_49">
<rect width="85" height="68" fill="white"/>
</clipPath>
</defs>
</svg>
