<svg width="100" height="100" viewBox="0 0 100 100" fill="none" xmlns="http://www.w3.org/2000/svg">
<path d="M78.916 79.2833C82.4528 77.7594 86.6697 77.2047 92.1107 77.343C91.9576 76.3058 90.0133 75.074 88.5889 74.1716C88.1107 73.8687 87.6912 73.6029 87.4176 73.394C85.2411 71.8005 82.9285 70.137 80.6163 68.6827C79.8714 68.219 78.799 67.8321 77.7669 67.4598C77.103 67.2202 76.4558 66.9867 75.9233 66.7427C75.3792 66.5168 74.6381 66.291 73.838 66.0471C71.9376 65.4678 69.7041 64.787 68.9859 63.7635C67.1366 61.3142 65.8459 58.3525 64.5571 55.3949C64.424 55.0894 64.2909 54.7839 64.1572 54.479C63.4825 52.908 62.732 51.306 61.9773 49.6951C61.1343 47.8958 60.2861 46.0852 59.5324 44.2939C59.2039 43.5642 58.9542 42.8744 58.7084 42.1954C58.3941 41.3271 58.0861 40.4764 57.6281 39.5825C52.6628 29.8133 45.3179 21.6372 36.408 15.8866C33.4831 14.0158 30.219 12.2832 26.614 11.1057C25.5131 10.7694 24.2935 10.7152 23.0619 10.6606C22.0108 10.6139 20.951 10.5669 19.9488 10.3437H18.5203C17.6956 10.1103 16.9635 9.4367 16.2825 8.81006C15.9526 8.50648 15.6347 8.21393 15.324 7.98781C13.2153 6.53298 11.1071 5.56236 8.59056 4.52351C7.7065 4.10797 5.18994 3.13779 4.30585 3.9002C3.76141 4.03886 3.48962 4.24663 3.3535 4.80083C2.80949 5.63235 3.28609 6.87941 3.62573 7.64138C4.29987 9.10652 5.15231 10.1784 6.02583 11.2768C6.47423 11.8406 6.9282 12.4115 7.36645 13.046C7.57577 13.347 7.79399 13.6548 8.01588 13.9678C9.01974 15.3836 10.0986 16.9052 10.7671 18.3807C11.7104 20.4508 12.3827 22.6392 13.0527 24.8195C13.6385 26.7262 14.2224 28.6267 14.984 30.4367C15.5958 31.8919 16.5482 33.5545 17.4322 34.8711C17.7095 35.2564 18.071 35.6036 18.4369 35.955C19.0581 36.5516 19.6921 37.1605 19.9488 37.989C20.6102 39.1119 19.3959 42.3275 18.6581 44.2812C18.4854 44.7385 18.3388 45.1267 18.2485 45.4027C16.4799 51.0838 16.82 58.9826 18.8603 63.9017C18.9333 64.0751 19.0057 64.2512 19.0786 64.4286C19.8217 66.2367 20.6194 68.1775 22.6011 68.6826C22.6627 68.6198 22.6686 68.5997 22.6818 68.5901C22.6978 68.5784 22.7246 68.582 22.8733 68.544C22.9728 67.7476 23.0575 66.9572 23.141 66.1779C23.457 63.2286 23.7559 60.4385 24.7776 58.082C25.2644 56.8651 26.0674 55.8827 26.8501 54.9253C27.2707 54.4107 27.6855 53.9033 28.0421 53.3706C28.4737 53.6343 28.6314 54.2328 28.7934 54.8476C28.8867 55.2015 28.9814 55.5608 29.1306 55.8647C29.1948 56.0207 29.2593 56.1778 29.3243 56.3358C30.1537 58.3535 31.046 60.5243 32.055 62.516C34.2993 66.9505 36.8163 71.2458 39.6725 75.1261C40.6245 76.5118 41.9851 78.0362 43.2093 79.2833C43.3954 79.4493 43.5896 79.5909 43.7807 79.7304C44.1482 79.9985 44.5049 80.2587 44.7735 80.669H44.9096V80.8772C43.6184 80.3947 42.6268 79.3573 41.659 78.3445C41.0974 77.757 40.5439 77.1778 39.9443 76.7201C36.8838 74.3641 33.2113 70.8303 31.1027 67.4355C30.4385 65.9783 29.7361 64.56 29.024 63.1221C28.7882 62.6459 28.5513 62.1675 28.3143 61.6849C28.3143 61.6849 28.3147 61.6154 28.3143 61.5463C28.0544 61.8994 28.0154 62.2523 27.9684 62.6772C27.9416 62.9191 27.9123 63.1843 27.8381 63.4862C27.5861 64.474 27.4611 65.5013 27.3404 66.4941C27.0378 68.9831 26.7615 71.2555 24.5736 72.1469C21.1051 73.6022 18.5203 69.7906 17.4323 68.0589C13.9638 62.3083 13.0114 52.6082 15.4597 44.779C15.6491 44.1764 15.7809 43.5318 15.9123 42.8891C16.1586 41.6844 16.4036 40.4861 17.0243 39.5825C16.8879 38.7499 16.4182 38.3185 15.9591 37.897C15.7306 37.6872 15.5048 37.4798 15.324 37.2266C14.3717 35.9104 13.5559 34.3861 12.8075 32.9312C11.72 30.7685 10.8694 28.2845 10.0451 25.8771C9.78657 25.122 9.5306 24.3744 9.27072 23.6467C9.03856 23.0387 8.88734 22.4305 8.73813 21.8304C8.58131 21.1996 8.42671 20.5778 8.18269 19.9747C7.53975 18.5555 6.47511 17.1366 5.4867 15.8193C5.22027 15.4642 4.95938 15.1165 4.71377 14.7782C4.44882 14.3908 4.098 13.9419 3.70693 13.4414C1.78925 10.9873 -1.0963 7.29454 0.429068 3.55378C3.28568 -3.5826 13.2841 1.82119 17.16 4.31575C17.5476 4.56961 17.9578 4.93816 18.3813 5.3187C18.9983 5.87317 19.6437 6.45309 20.2889 6.74076C21.1392 6.77554 21.9897 6.8275 22.8401 6.87945C23.6901 6.93138 24.5401 6.98331 25.3899 7.01808C25.6683 7.08445 25.9452 7.14977 26.2204 7.21469C29.1042 7.89502 31.7981 8.53052 34.0954 9.85863C45.7937 16.8568 53.4112 23.9932 60.4165 35.7718C61.3675 37.3569 62.0164 39.0262 62.6772 40.7261C63.0561 41.7009 63.439 42.6857 63.8849 43.6705C65.5852 47.689 67.4904 51.9149 69.4621 55.726C69.71 56.2313 69.9418 56.7528 70.1742 57.2753C70.7704 58.6163 71.3697 59.9642 72.2508 61.0612C72.5675 61.5223 73.2763 61.7684 73.9554 62.0042C74.2966 62.1227 74.6303 62.2385 74.9031 62.3778C75.7828 62.8393 76.7356 63.2584 77.6961 63.6808C79.1861 64.3361 80.6944 64.9995 81.9766 65.8421C85.9212 68.3362 89.7302 71.315 93.1987 74.3642C93.8999 75.0033 94.481 75.785 95.0613 76.5656C95.5507 77.2239 96.0395 77.8815 96.5994 78.4522V79.0755C95.5113 79.422 94.4228 79.7684 93.3348 80.0457C92.1509 80.3557 91.0344 80.4772 89.9265 80.5978C88.8068 80.7197 87.696 80.8406 86.5336 81.1541C86.387 81.1968 86.2369 81.2409 86.0838 81.2859C84.7451 81.6794 83.1833 82.1385 81.8405 82.263C81.9083 82.3321 81.9766 82.4012 81.9766 82.4012C82.6322 84.3022 85.4196 85.9364 87.704 87.2758C88.5004 87.7427 89.2356 88.1738 89.7981 88.5678C92.4507 90.5077 94.899 92.8636 96.8716 95.5655C97.2106 95.9109 97.5498 96.2392 97.8889 96.5674C98.2301 96.8975 98.5711 97.2275 98.912 97.575C99.1423 97.9104 99.293 98.2946 99.4413 98.6725C99.5992 99.075 99.7544 99.4705 100 99.7922V100C99.4049 99.7835 98.9959 99.3505 98.5902 98.921C98.3467 98.6631 98.1043 98.4065 97.8235 98.1987C97.1829 97.7538 96.5425 97.2707 95.902 96.7875C95.0464 96.142 94.1908 95.4966 93.3348 94.9422C92.0188 94.0954 90.5969 93.4283 89.168 92.7579C87.7907 92.1118 86.4069 91.4626 85.105 90.6464C83.6091 89.6762 82.1805 88.5678 80.7524 87.4594C79.46 86.4892 78.0323 84.618 77.2157 83.2327C77.0099 82.9034 76.8803 82.5481 76.7556 82.2061C76.5918 81.7568 76.4363 81.3304 76.1272 81.0155C76.229 80.0312 77.1677 79.7827 78.0613 79.5462C78.3626 79.4665 78.6588 79.3881 78.916 79.2833Z" fill="#00546B"/>
<path d="M19.9485 17.4801C20.7647 17.2723 21.5805 17.1332 22.7368 17.1332C22.9524 17.353 23.2214 17.54 23.493 17.7288C23.907 18.0166 24.327 18.3085 24.5733 18.7271C24.7244 18.9427 24.8217 19.1582 24.9191 19.3737C25.0408 19.6433 25.1626 19.9128 25.3895 20.1824C25.3895 21.845 24.9138 22.9534 23.961 23.6467C23.961 23.6467 23.8931 23.7158 23.8253 23.7854C23.5535 23.2318 23.2988 22.6782 23.0441 22.1246C22.7887 21.5694 22.5333 21.0143 22.2607 20.4593C21.9958 20.0817 21.6898 19.7355 21.3828 19.3881C20.9012 18.8433 20.417 18.2955 20.0846 17.6187H19.9485V17.4801Z" fill="#00546B"/>
</svg>
