<svg width="100" height="100" viewBox="0 0 100 100" fill="none" xmlns="http://www.w3.org/2000/svg">
<path fill-rule="evenodd" clip-rule="evenodd" d="M50.0885 98.6469C48.7453 98.6469 47.4916 98.2887 46.3274 97.6619L34.4173 90.5874C32.6263 89.6024 33.5218 89.2442 34.0591 89.0651C36.4769 88.2591 36.9247 88.08 39.4321 86.6472C39.7007 86.4681 40.0589 86.5577 40.3276 86.7368L49.4617 92.1993C49.8199 92.3784 50.2676 92.3784 50.5363 92.1993L86.2667 71.5133C86.6249 71.3342 86.804 70.976 86.804 70.5283V29.2458C86.804 28.798 86.6249 28.4398 86.2667 28.2607L50.5363 7.66424C50.1781 7.48514 49.7303 7.48514 49.4617 7.66424L13.7313 28.2607C13.3731 28.4398 13.194 28.8876 13.194 29.2458V70.5283C13.194 70.8865 13.3731 71.3342 13.7313 71.5133L23.4922 77.155C28.7757 79.8414 32.089 76.7072 32.089 73.573V32.8278C32.089 32.2905 32.5368 31.7532 33.1636 31.7532H37.7306C38.268 31.7532 38.8052 32.2009 38.8052 32.8278V73.573C38.8052 80.6474 34.9546 84.7667 28.2384 84.7667C26.1787 84.7667 24.5668 84.7667 19.9998 82.5279L10.597 77.155C8.26874 75.8117 6.83594 73.3043 6.83594 70.6178V29.3353C6.83594 26.6488 8.26874 24.1414 10.597 22.7982L46.3274 2.11215C48.5662 0.858451 51.6109 0.858451 53.8496 2.11215L89.58 22.7982C91.9083 24.1414 93.3411 26.6488 93.3411 29.3353V70.6178C93.3411 73.3043 91.9083 75.8117 89.58 77.155L53.8496 97.841C52.6855 98.3783 51.3422 98.6469 50.0885 98.6469ZM61.1032 70.2596C45.4319 70.2596 42.2081 63.0956 42.2081 57.0062C42.2081 56.4689 42.6559 55.9316 43.2827 55.9316H47.9393C48.4766 55.9316 48.9244 56.2898 48.9244 56.8271C49.6408 61.5733 51.7004 63.9016 61.1927 63.9016C68.7149 63.9016 71.9387 62.2001 71.9387 58.1704C71.9387 55.8421 71.0432 54.1406 59.3122 52.9765C49.5512 51.9914 43.4618 49.8422 43.4618 42.0514C43.4618 34.7979 49.5512 30.4995 59.7599 30.4995C71.2223 30.4995 76.864 34.4397 77.5804 43.0364C77.5804 43.3051 77.4908 43.5737 77.3117 43.8424C77.1326 44.0215 76.864 44.2006 76.5953 44.2006H71.9387C71.491 44.2006 71.0432 43.8424 70.9537 43.3946C69.8791 38.4694 67.103 36.8575 59.7599 36.8575C51.5213 36.8575 50.5363 39.7231 50.5363 41.8723C50.5363 44.4692 51.7004 45.2752 62.8046 46.708C73.8193 48.1408 79.0131 50.2004 79.0131 57.9017C78.9236 65.7821 72.476 70.2596 61.1032 70.2596Z" fill="#539E43"/>
</svg>
