<svg width="100" height="100" viewBox="0 0 100 100" fill="none" xmlns="http://www.w3.org/2000/svg">
<path fill-rule="evenodd" clip-rule="evenodd" d="M30.7305 61.1915C28.9141 62.1854 26.1773 63.7956 24.0602 65.547C20.5844 68.4191 19.857 72.4031 21.6906 73.3338C23.3867 74.1941 27.3465 73.1704 30.1805 70.4658C33.1547 67.6262 34.3813 64.0263 33.1145 59.9398C32.9656 60.0174 32.8195 60.0953 32.6762 60.1678L32.6793 60.1733L32.4871 60.2686C31.7477 60.6549 31.1434 60.9734 30.7305 61.1915ZM81.7738 59.9022C80.7449 61.8587 80.6934 62.4883 81.0059 62.6841C82.4988 62.2148 84.9688 61.0838 84.9883 58.0531C84.9914 57.5992 84.877 57.1121 84.6934 56.6032C83.0973 57.8398 82.1774 59.1345 81.7738 59.9022ZM97.7934 53.9867C93.8051 53.58 90.693 54.0694 88.2777 54.9499C88.725 55.9685 89.0687 57.0294 89.1172 58.0982C89.2293 60.444 87.384 62.18 85.4609 63.4193C84.3379 64.1419 83.143 64.6235 82.1398 64.9143C81.3379 65.2103 80.2719 65.5162 79.5152 65.3812C77.8473 65.0845 76.9594 63.7881 78.0941 60.9283C78.707 59.3806 80.475 57.0246 83.3289 54.9954C82.6785 53.8237 81.9535 52.6298 81.584 51.533C80.8559 49.3708 80.6359 48.0637 80.6359 48.0637C80.6359 48.0637 78.2836 52.3311 75.2488 56.2118C75.0738 56.4374 74.8992 56.6586 74.7242 56.879C75.3203 58.091 75.7898 59.3728 75.8535 60.6651C75.9652 63.0105 74.8047 64.7841 72.8789 66.0207C71.8363 66.6934 70.7242 67.1579 69.7699 67.4535C69.1598 67.6866 67.9187 68.0701 66.1539 68.1734C65.1887 68.2311 64.2602 68.1788 63.7418 67.835C63.0281 67.3633 62.9422 66.7812 63.3117 65.9859C63.6242 65.3108 65.9621 62.9757 67.9223 60.931C68.4637 60.3664 68.9793 59.7894 69.4406 59.2552L69.4293 59.2323C69.4293 59.2326 69.7844 58.8314 70.3605 58.1314C69.6441 56.7816 68.7359 55.3765 68.309 54.1022C67.5809 51.94 67.3605 50.6327 67.3605 50.6327C67.3605 50.6327 64.9762 55.9815 62.4922 60.2512C60.5699 63.5581 59.2859 65.562 58.7074 66.4401L58.7016 66.4753C58.7016 66.4753 58.6152 66.6035 58.4664 66.8041L58.3551 66.9668L58.352 66.9518C57.707 67.7851 56.2602 69.4178 54.8219 69.4178C50.8734 69.4178 52.323 62.4011 52.323 62.4011C52.323 62.4011 51.1687 65.0001 49.8676 67.2303C48.8078 69.049 47.8422 70.5899 45.7305 70.5899C45.123 70.5899 44.1602 70.5745 43.3605 69.9094C41.5469 68.4017 40.1602 64.5732 40.432 61.6081C40.6641 59.087 41.1082 57.3408 41.7156 55.8837C40.6324 56.4002 39.3805 57.0127 38.1055 57.6675L36.1453 58.6782L36.2086 58.7787C37.8301 61.5234 38.2629 67.5366 34.727 72.1526C31.1914 76.7709 24.6098 79.5808 18.1973 78.0205C16.1281 77.5161 13.0023 73.7706 15.6984 68.55C18.0766 63.9464 27.5809 59.5939 30.0855 58.5077L30.773 58.1765C25.7793 54.3531 13.309 49.1954 11.5613 41.2729C11.0684 39.0427 12.2633 33.7093 19.7473 27.5781C26.0422 22.4228 34.7988 18.474 42.8879 15.9577C56.4777 11.7307 70.8363 14.2241 73.0453 21.8055C75.2172 29.2614 67.825 38.18 58.3578 41.386C49.9051 44.2482 42.9164 43.7943 40.0453 42.9692C36.7816 42.031 34.8676 40.1467 34.4008 39.083C34.2172 38.6667 33.9016 37.967 34.4008 37.7261C34.707 37.5781 34.8301 37.6133 35.6496 38.4059C36.4293 39.1585 39.5637 41.1782 45.518 40.5934C61.143 39.0608 70.5551 28.4312 67.5809 22.7112C65.498 18.7074 53.4551 16.901 38.409 23.4663C20.0422 31.479 19.0453 38.0846 18.8879 40.5934C18.4578 47.4946 28.6152 51.1249 34.1113 56.2573L34.323 56.4607C35.3516 55.964 36.4379 55.4397 37.5035 54.928C40.2746 53.5957 42.8879 52.3461 44.1055 51.764C46.0398 49.3038 49.9648 46.5889 52.7988 46.5889C57.3289 46.5889 55.773 52.2863 55.773 52.2863C55.773 52.2863 55.8648 52.0255 55.9879 52.0231C56.1168 52.02 56.6156 51.2725 58.0141 51.7189C59.4523 52.1807 59.1254 53.0639 59.1344 53.1541C59.1516 53.3294 57.4352 58.3945 56.7219 61.6433C56.3805 63.1937 56.5781 64.323 56.6789 64.323C56.8191 64.323 57.1059 63.9289 57.3723 63.5051L57.3664 63.4925C57.3664 63.4925 57.5668 63.1715 57.9023 62.5945L57.9684 62.4739L57.9711 62.4794C58.3668 61.8019 58.9223 60.8059 59.5641 59.5717C60.8219 57.146 65.6211 47.7807 66.0281 46.7447C66.4348 45.7087 66.6469 44.6375 66.8477 44.1782C67.0453 43.7191 68.7418 43.3729 70.7242 43.3855C72.707 43.3982 72.9082 44.1382 72.9219 44.2913C72.9363 44.4441 71.9793 46.499 71.7586 47.9513C71.541 49.4039 71.7504 50.1285 71.9309 51.348C72.0484 52.1455 72.6184 53.1568 73.2922 54.3032C75.3438 51.3679 78.9535 45.7535 79.3004 44.1806C79.5379 43.1046 79.9191 42.0734 80.1199 41.614C80.3203 41.155 82.0141 40.8091 83.9965 40.8214C85.9793 40.834 86.1797 41.574 86.1941 41.7271C86.2086 41.8803 85.2484 43.9348 85.0309 45.3874C84.8129 46.8373 85.0227 47.565 85.2027 48.7842C85.3578 49.8277 86.2801 51.2301 87.1945 52.8253C89.6898 51.749 92.627 51.0268 96.0656 51.0117C97.4895 51.0045 99.143 51.1296 99.9969 51.3627V27.3621C99.9969 25.6688 99.0051 24.1085 97.3293 23.2632L52.5844 0.634205C50.9113 -0.211402 48.8625 -0.211402 47.1891 0.634205L2.56758 23.2523C0.894141 24.0979 0 25.661 0 27.3515V72.629C0 74.3196 0.899609 75.8826 2.57031 76.7279L47.2637 99.3637C48.9367 100.212 50.9656 100.212 52.6387 99.3637L97.3523 76.7279C99.0254 75.8799 100 74.3192 100 72.629V54.3306C99.4324 54.1843 98.6016 54.0691 97.7934 53.9867ZM49.6559 51.6157C48.6961 52.5563 47.0602 54.982 46.2949 57.0123C44.7734 61.0435 45.4324 65.1403 46.5098 65.3863C47.7676 65.6745 49.8309 60.286 50.8187 58.1785C51.4379 56.8588 53.8449 51.0015 53.3176 50.2187C52.9059 49.6066 51.2004 50.1008 49.6559 51.6157ZM67.0633 65.2028C67.0633 65.2028 66.7598 65.454 66.891 65.5241C67.0688 65.6171 67.4527 65.4964 67.8711 65.3057C69.0547 64.6539 71.7105 63.028 71.7164 60.622C71.7164 60.552 71.7133 60.4843 71.7078 60.4115C71.0918 61.119 70.5242 61.7486 70.0344 62.2828C69.1977 63.1934 67.0633 65.2028 67.0633 65.2028Z" fill="#8CC84B"/>
</svg>
